<?xml version="1.0" ?><svg viewBox="0 0 48 48" xmlns="http://www.w3.org/2000/svg" xmlns:xlink="http://www.w3.org/1999/xlink"><defs><style>.cls-1{fill:url(#linear-gradient);}.cls-2{fill:url(#linear-gradient-2);}.cls-3{fill:url(#linear-gradient-3);}.cls-4{fill:url(#linear-gradient-4);}.cls-5{fill:url(#linear-gradient-5);}.cls-6{fill:url(#linear-gradient-6);}</style><linearGradient gradientTransform="matrix(-1, 0, 0, 1, 349.14, 150.49)" gradientUnits="userSpaceOnUse" id="linear-gradient" x1="333.86" x2="333.86" y1="-117.95" y2="-115.13"><stop offset="0" stop-color="#dbdbdb"/><stop offset="1" stop-color="#a1a1a1"/></linearGradient><linearGradient gradientTransform="matrix(-1, 0, 0, 1, 48, 0)" gradientUnits="userSpaceOnUse" id="linear-gradient-2" x1="35.45" x2="39.66" y1="40.08" y2="35.55"><stop offset="0" stop-color="#666"/><stop offset="1" stop-color="#9d9d9d"/></linearGradient><linearGradient gradientTransform="matrix(-1, 0, 0, 1, 48, 0)" id="linear-gradient-3" x1="19.7" x2="19.7" xlink:href="#linear-gradient" y1="3.95" y2="27.5"/><linearGradient gradientTransform="matrix(-1, 0, 0, 1, 48, 0)" gradientUnits="userSpaceOnUse" id="linear-gradient-4" x1="19.7" x2="19.7" y1="6.71" y2="29.8"><stop offset="0" stop-color="#e7e7e7"/><stop offset="1" stop-color="#a1a1a1"/></linearGradient><linearGradient gradientTransform="matrix(-1, 0, 0, 1, 48, 0)" id="linear-gradient-5" x1="21.3" x2="19.33" xlink:href="#linear-gradient" y1="31.56" y2="16.8"/><linearGradient gradientTransform="matrix(-1, 0, 0, 1, 48, 0)" gradientUnits="userSpaceOnUse" id="linear-gradient-6" x1="16.54" x2="21.83" y1="11.02" y2="25.42"><stop offset="0" stop-color="#00e3ff"/><stop offset="1" stop-color="#00afd6"/></linearGradient></defs><title/><g id="icons"><g data-name="Layer 3" id="Layer_3"><rect class="cls-1" height="3.22" transform="translate(-19.64 20.81) rotate(-45)" width="9.19" x="10.7" y="32.5"/><path class="cls-2" d="M11,43l6.68-6.68-4.56-4.56L6.46,38.4a3.13,3.13,0,0,0,0,4.44l.11.12A3.15,3.15,0,0,0,11,43Z"/><circle class="cls-3" cx="28.3" cy="19.62" r="15.5"/><circle class="cls-4" cx="28.3" cy="19.62" r="14.5"/><circle class="cls-5" cx="28.3" cy="19.62" r="10.5"/><circle class="cls-6" cx="28.3" cy="19.62" r="9.5"/></g></g></svg>